<svg xmlns="http://www.w3.org/2000/svg" width="70.768" height="73.1" viewBox="0 0 70.768 73.1">
  <g id="Group_3" data-name="Group 3" opacity="0.51">
    <path id="Path_6" data-name="Path 6" d="M12.638,46.662a12.965,12.965,0,0,1,0,25.921,12.965,12.965,0,0,1,0-25.921ZM12.638,0A12.8,12.8,0,0,1,25.268,12.961,12.8,12.8,0,0,1,12.634,25.921,12.8,12.8,0,0,1,0,12.961,12.8,12.8,0,0,1,12.638,0ZM58.13,0A12.8,12.8,0,0,1,70.768,12.961a12.64,12.64,0,1,1-25.272,0A12.8,12.8,0,0,1,58.13,0Z" fill="#f3603c" fill-rule="evenodd"/>
    <ellipse id="Ellipse_1" data-name="Ellipse 1" cx="12.638" cy="12.961" rx="12.638" ry="12.961" transform="translate(45.491 47.179)" fill="#f3603c" opacity="0.5"/>
  </g>
</svg>
